<?xml version="1.0" encoding="UTF-8" standalone="no"?>
<!DOCTYPE svg PUBLIC "-//W3C//DTD SVG 1.1//EN"
 "http://www.w3.org/Graphics/SVG/1.1/DTD/svg11.dtd">
<!-- Generated by graphviz version 14.1.1 (20251213.1925)
 -->
<!-- Title: mg Pages: 1 -->
<svg width="712pt" height="317pt"
 viewBox="0.00 0.00 712.00 317.00" xmlns="http://www.w3.org/2000/svg" xmlns:xlink="http://www.w3.org/1999/xlink">
<g id="graph0" class="graph" transform="scale(1 1) rotate(0) translate(4 312.5)">
<title>mg</title>
<polygon fill="white" stroke="none" points="-4,4 -4,-312.5 708,-312.5 708,4 -4,4"/>
<g id="clust1" class="cluster">
<title>cluster_meaning</title>
<polygon fill="none" stroke="black" stroke-dasharray="5,2" points="8,-8 8,-300.5 206,-300.5 206,-8 8,-8"/>
<text xml:space="preserve" text-anchor="middle" x="107" y="-283.2" font-family="Times,serif" font-size="14.00">meaning</text>
</g>
<g id="clust2" class="cluster">
<title>cluster_context</title>
<polygon fill="none" stroke="black" stroke-dasharray="5,2" points="226,-8 226,-300.5 478,-300.5 478,-8 226,-8"/>
<text xml:space="preserve" text-anchor="middle" x="352" y="-283.2" font-family="Times,serif" font-size="14.00">context</text>
</g>
<g id="clust3" class="cluster">
<title>cluster_relations</title>
<polygon fill="none" stroke="black" stroke-dasharray="5,2" points="486,-8 486,-300.5 696,-300.5 696,-8 486,-8"/>
<text xml:space="preserve" text-anchor="middle" x="591" y="-283.2" font-family="Times,serif" font-size="14.00">relations</text>
</g>
<!-- elaborate -->
<g id="node1" class="node">
<title>elaborate</title>
<path fill="none" stroke="black" d="M186.15,-268C186.15,-268 131.85,-268 131.85,-268 125.85,-268 119.85,-262 119.85,-256 119.85,-256 119.85,-244 119.85,-244 119.85,-238 125.85,-232 131.85,-232 131.85,-232 186.15,-232 186.15,-232 192.15,-232 198.15,-238 198.15,-244 198.15,-244 198.15,-256 198.15,-256 198.15,-262 192.15,-268 186.15,-268"/>
<text xml:space="preserve" text-anchor="middle" x="159" y="-244.95" font-family="Times,serif" font-size="14.00">elaborate</text>
</g>
<!-- card -->
<g id="node2" class="node">
<title>card</title>
<path fill="none" stroke="black" d="M85,-160C85,-160 55,-160 55,-160 49,-160 43,-154 43,-148 43,-148 43,-136 43,-136 43,-130 49,-124 55,-124 55,-124 85,-124 85,-124 91,-124 97,-130 97,-136 97,-136 97,-148 97,-148 97,-154 91,-160 85,-160"/>
<text xml:space="preserve" text-anchor="middle" x="70" y="-136.95" font-family="Times,serif" font-size="14.00">card</text>
</g>
<!-- elaborate&#45;&gt;card -->
<g id="edge1" class="edge">
<title>elaborate&#45;&gt;card</title>
<path fill="none" stroke="black" d="M144.7,-231.97C129.67,-214.07 105.95,-185.81 89.28,-165.96"/>
<polygon fill="black" stroke="black" points="91,-164.74 85.53,-161.5 87.78,-167.45 91,-164.74"/>
</g>
<!-- agent -->
<g id="node3" class="node">
<title>agent</title>
<path fill="none" stroke="black" d="M179.03,-160C179.03,-160 144.97,-160 144.97,-160 138.97,-160 132.97,-154 132.97,-148 132.97,-148 132.97,-136 132.97,-136 132.97,-130 138.97,-124 144.97,-124 144.97,-124 179.03,-124 179.03,-124 185.03,-124 191.03,-130 191.03,-136 191.03,-136 191.03,-148 191.03,-148 191.03,-154 185.03,-160 179.03,-160"/>
<text xml:space="preserve" text-anchor="middle" x="162" y="-136.95" font-family="Times,serif" font-size="14.00">agent</text>
</g>
<!-- elaborate&#45;&gt;agent -->
<g id="edge2" class="edge">
<title>elaborate&#45;&gt;agent</title>
<path fill="none" stroke="black" d="M159.48,-231.97C159.97,-214.61 160.74,-187.5 161.3,-167.77"/>
<polygon fill="black" stroke="black" points="163.4,-167.91 161.47,-161.85 159.2,-167.79 163.4,-167.91"/>
</g>
<!-- compose -->
<g id="node6" class="node">
<title>compose</title>
<path fill="none" stroke="black" d="M347.77,-268C347.77,-268 294.23,-268 294.23,-268 288.23,-268 282.23,-262 282.23,-256 282.23,-256 282.23,-244 282.23,-244 282.23,-238 288.23,-232 294.23,-232 294.23,-232 347.77,-232 347.77,-232 353.77,-232 359.77,-238 359.77,-244 359.77,-244 359.77,-256 359.77,-256 359.77,-262 353.77,-268 347.77,-268"/>
<text xml:space="preserve" text-anchor="middle" x="321" y="-244.95" font-family="Times,serif" font-size="14.00">compose</text>
</g>
<!-- elaborate&#45;&gt;compose -->
<g id="edge22" class="edge">
<title>elaborate&#45;&gt;compose</title>
<path fill="none" stroke="black" d="M206.03,-250C228.81,-250 251.6,-250 274.38,-250"/>
<polygon fill="black" stroke="black" points="206.06,-247.9 200.06,-250 206.06,-252.1 206.06,-247.9"/>
<polygon fill="black" stroke="black" points="274.26,-252.1 280.26,-250 274.26,-247.9 274.26,-252.1"/>
</g>
<!-- card&#45;&gt;agent -->
<g id="edge3" class="edge">
<title>card&#45;&gt;agent</title>
<path fill="none" stroke="black" stroke-dasharray="5,2" d="M97.31,-130.73C106.71,-128.49 116.11,-127.94 125.5,-129.08"/>
<polygon fill="black" stroke="black" points="124.93,-131.11 131.2,-130.03 125.62,-126.97 124.93,-131.11"/>
</g>
<!-- semantics -->
<g id="node4" class="node">
<title>semantics</title>
<path fill="none" stroke="black" d="M86.4,-52C86.4,-52 27.6,-52 27.6,-52 21.6,-52 15.6,-46 15.6,-40 15.6,-40 15.6,-28 15.6,-28 15.6,-22 21.6,-16 27.6,-16 27.6,-16 86.4,-16 86.4,-16 92.4,-16 98.4,-22 98.4,-28 98.4,-28 98.4,-40 98.4,-40 98.4,-46 92.4,-52 86.4,-52"/>
<text xml:space="preserve" text-anchor="middle" x="57" y="-28.95" font-family="Times,serif" font-size="14.00">semantics</text>
</g>
<!-- card&#45;&gt;semantics -->
<g id="edge5" class="edge">
<title>card&#45;&gt;semantics</title>
<path fill="none" stroke="black" d="M67.91,-123.97C65.78,-106.61 62.46,-79.5 60.04,-59.77"/>
<polygon fill="black" stroke="black" points="62.13,-59.54 59.31,-53.84 57.96,-60.05 62.13,-59.54"/>
</g>
<!-- syntax -->
<g id="node5" class="node">
<title>syntax</title>
<path fill="none" stroke="black" d="M186.03,-52C186.03,-52 145.97,-52 145.97,-52 139.97,-52 133.97,-46 133.97,-40 133.97,-40 133.97,-28 133.97,-28 133.97,-22 139.97,-16 145.97,-16 145.97,-16 186.03,-16 186.03,-16 192.03,-16 198.03,-22 198.03,-28 198.03,-28 198.03,-40 198.03,-40 198.03,-46 192.03,-52 186.03,-52"/>
<text xml:space="preserve" text-anchor="middle" x="166" y="-28.95" font-family="Times,serif" font-size="14.00">syntax</text>
</g>
<!-- card&#45;&gt;syntax -->
<g id="edge6" class="edge">
<title>card&#45;&gt;syntax</title>
<path fill="none" stroke="black" d="M85.42,-123.97C101.7,-106 127.44,-77.57 145.44,-57.7"/>
<polygon fill="black" stroke="black" points="146.81,-59.32 149.28,-53.46 143.7,-56.5 146.81,-59.32"/>
</g>
<!-- agent&#45;&gt;card -->
<g id="edge4" class="edge">
<title>agent&#45;&gt;card</title>
<path fill="none" stroke="black" stroke-dasharray="5,2" d="M132.69,-153.72C123.29,-155.72 113.89,-156.04 104.5,-154.66"/>
<polygon fill="black" stroke="black" points="105.09,-152.63 98.8,-153.56 104.29,-156.76 105.09,-152.63"/>
</g>
<!-- agent&#45;&gt;semantics -->
<g id="edge7" class="edge">
<title>agent&#45;&gt;semantics</title>
<path fill="none" stroke="black" d="M145.13,-123.97C127.25,-105.92 98.93,-77.33 79.24,-57.45"/>
<polygon fill="black" stroke="black" points="80.96,-56.2 75.24,-53.42 77.97,-59.16 80.96,-56.2"/>
</g>
<!-- agent&#45;&gt;syntax -->
<g id="edge8" class="edge">
<title>agent&#45;&gt;syntax</title>
<path fill="none" stroke="black" d="M162.64,-123.97C163.3,-106.61 164.32,-79.5 165.07,-59.77"/>
<polygon fill="black" stroke="black" points="167.16,-59.93 165.29,-53.85 162.96,-59.77 167.16,-59.93"/>
</g>
<!-- intent -->
<g id="node7" class="node">
<title>intent</title>
<path fill="none" stroke="black" d="M281.77,-160C281.77,-160 246.22,-160 246.22,-160 240.22,-160 234.22,-154 234.22,-148 234.22,-148 234.22,-136 234.22,-136 234.22,-130 240.22,-124 246.22,-124 246.22,-124 281.77,-124 281.77,-124 287.77,-124 293.77,-130 293.77,-136 293.77,-136 293.77,-148 293.77,-148 293.77,-154 287.77,-160 281.77,-160"/>
<text xml:space="preserve" text-anchor="middle" x="264" y="-136.95" font-family="Times,serif" font-size="14.00">intent</text>
</g>
<!-- compose&#45;&gt;intent -->
<g id="edge9" class="edge">
<title>compose&#45;&gt;intent</title>
<path fill="none" stroke="black" d="M311.84,-231.97C302.34,-214.3 287.41,-186.54 276.76,-166.73"/>
<polygon fill="black" stroke="black" points="278.73,-165.96 274.04,-161.67 275.03,-167.95 278.73,-165.96"/>
</g>
<!-- encoding -->
<g id="node8" class="node">
<title>encoding</title>
<path fill="none" stroke="black" d="M396.15,-160C396.15,-160 341.85,-160 341.85,-160 335.85,-160 329.85,-154 329.85,-148 329.85,-148 329.85,-136 329.85,-136 329.85,-130 335.85,-124 341.85,-124 341.85,-124 396.15,-124 396.15,-124 402.15,-124 408.15,-130 408.15,-136 408.15,-136 408.15,-148 408.15,-148 408.15,-154 402.15,-160 396.15,-160"/>
<text xml:space="preserve" text-anchor="middle" x="369" y="-136.95" font-family="Times,serif" font-size="14.00">encoding</text>
</g>
<!-- compose&#45;&gt;encoding -->
<g id="edge10" class="edge">
<title>compose&#45;&gt;encoding</title>
<path fill="none" stroke="black" d="M328.71,-231.97C336.68,-214.38 349.17,-186.78 358.14,-166.99"/>
<polygon fill="black" stroke="black" points="359.96,-168.05 360.52,-161.72 356.14,-166.32 359.96,-168.05"/>
</g>
<!-- collaborate -->
<g id="node12" class="node">
<title>collaborate</title>
<path fill="none" stroke="black" d="M572.4,-268C572.4,-268 507.6,-268 507.6,-268 501.6,-268 495.6,-262 495.6,-256 495.6,-256 495.6,-244 495.6,-244 495.6,-238 501.6,-232 507.6,-232 507.6,-232 572.4,-232 572.4,-232 578.4,-232 584.4,-238 584.4,-244 584.4,-244 584.4,-256 584.4,-256 584.4,-262 578.4,-268 572.4,-268"/>
<text xml:space="preserve" text-anchor="middle" x="540" y="-244.95" font-family="Times,serif" font-size="14.00">collaborate</text>
</g>
<!-- compose&#45;&gt;collaborate -->
<g id="edge23" class="edge">
<title>compose&#45;&gt;collaborate</title>
<path fill="none" stroke="black" d="M367.33,-250C407.5,-250 447.66,-250 487.83,-250"/>
<polygon fill="black" stroke="black" points="367.44,-247.9 361.44,-250 367.44,-252.1 367.44,-247.9"/>
<polygon fill="black" stroke="black" points="487.82,-252.1 493.82,-250 487.82,-247.9 487.82,-252.1"/>
</g>
<!-- intent&#45;&gt;encoding -->
<g id="edge11" class="edge">
<title>intent&#45;&gt;encoding</title>
<path fill="none" stroke="black" stroke-dasharray="5,2" d="M293.94,-130.99C303.36,-128.91 312.79,-128.13 322.21,-128.66"/>
<polygon fill="black" stroke="black" points="321.75,-130.73 327.91,-129.18 322.13,-126.54 321.75,-130.73"/>
</g>
<!-- encoding&#45;&gt;intent -->
<g id="edge12" class="edge">
<title>encoding&#45;&gt;intent</title>
<path fill="none" stroke="black" stroke-dasharray="5,2" d="M329.42,-154.68C319.99,-155.88 310.57,-155.76 301.15,-154.35"/>
<polygon fill="black" stroke="black" points="301.71,-152.31 295.43,-153.28 300.95,-156.44 301.71,-152.31"/>
</g>
<!-- elab -->
<g id="node9" class="node">
<title>elab</title>
<path fill="none" stroke="black" d="M276,-52C276,-52 246,-52 246,-52 240,-52 234,-46 234,-40 234,-40 234,-28 234,-28 234,-22 240,-16 246,-16 246,-16 276,-16 276,-16 282,-16 288,-22 288,-28 288,-28 288,-40 288,-40 288,-46 282,-52 276,-52"/>
<text xml:space="preserve" text-anchor="middle" x="261" y="-28.95" font-family="Times,serif" font-size="14.00">elab</text>
</g>
<!-- encoding&#45;&gt;elab -->
<g id="edge13" class="edge">
<title>encoding&#45;&gt;elab</title>
<path fill="none" stroke="black" d="M351.65,-123.97C333.26,-105.92 304.13,-77.33 283.87,-57.45"/>
<polygon fill="black" stroke="black" points="285.5,-56.1 279.75,-53.4 282.56,-59.1 285.5,-56.1"/>
</g>
<!-- flow -->
<g id="node10" class="node">
<title>flow</title>
<path fill="none" stroke="black" d="M366,-52C366,-52 336,-52 336,-52 330,-52 324,-46 324,-40 324,-40 324,-28 324,-28 324,-22 330,-16 336,-16 336,-16 366,-16 366,-16 372,-16 378,-22 378,-28 378,-28 378,-40 378,-40 378,-46 372,-52 366,-52"/>
<text xml:space="preserve" text-anchor="middle" x="351" y="-28.95" font-family="Times,serif" font-size="14.00">flow</text>
</g>
<!-- encoding&#45;&gt;flow -->
<g id="edge14" class="edge">
<title>encoding&#45;&gt;flow</title>
<path fill="none" stroke="black" d="M366.11,-123.97C363.15,-106.53 358.52,-79.26 355.16,-59.51"/>
<polygon fill="black" stroke="black" points="357.27,-59.4 354.2,-53.83 353.13,-60.1 357.27,-59.4"/>
</g>
<!-- trace -->
<g id="node11" class="node">
<title>trace</title>
<path fill="none" stroke="black" d="M457.52,-52C457.52,-52 426.48,-52 426.48,-52 420.48,-52 414.48,-46 414.48,-40 414.48,-40 414.48,-28 414.48,-28 414.48,-22 420.48,-16 426.48,-16 426.48,-16 457.52,-16 457.52,-16 463.52,-16 469.52,-22 469.52,-28 469.52,-28 469.52,-40 469.52,-40 469.52,-46 463.52,-52 457.52,-52"/>
<text xml:space="preserve" text-anchor="middle" x="442" y="-28.95" font-family="Times,serif" font-size="14.00">trace</text>
</g>
<!-- encoding&#45;&gt;trace -->
<g id="edge15" class="edge">
<title>encoding&#45;&gt;trace</title>
<path fill="none" stroke="black" d="M380.73,-123.97C392.95,-106.23 412.18,-78.3 425.84,-58.47"/>
<polygon fill="black" stroke="black" points="427.53,-59.72 429.2,-53.59 424.07,-57.34 427.53,-59.72"/>
</g>
<!-- multiplicity -->
<g id="node13" class="node">
<title>multiplicity</title>
<path fill="none" stroke="black" d="M574.27,-160C574.27,-160 505.73,-160 505.73,-160 499.73,-160 493.73,-154 493.73,-148 493.73,-148 493.73,-136 493.73,-136 493.73,-130 499.73,-124 505.73,-124 505.73,-124 574.27,-124 574.27,-124 580.27,-124 586.27,-130 586.27,-136 586.27,-136 586.27,-148 586.27,-148 586.27,-154 580.27,-160 574.27,-160"/>
<text xml:space="preserve" text-anchor="middle" x="540" y="-136.95" font-family="Times,serif" font-size="14.00">multiplicity</text>
</g>
<!-- collaborate&#45;&gt;multiplicity -->
<g id="edge16" class="edge">
<title>collaborate&#45;&gt;multiplicity</title>
<path fill="none" stroke="black" d="M540,-231.97C540,-214.61 540,-187.5 540,-167.77"/>
<polygon fill="black" stroke="black" points="542.1,-167.85 540,-161.85 537.9,-167.85 542.1,-167.85"/>
</g>
<!-- neutral -->
<g id="node14" class="node">
<title>neutral</title>
<path fill="none" stroke="black" d="M676.15,-160C676.15,-160 633.85,-160 633.85,-160 627.85,-160 621.85,-154 621.85,-148 621.85,-148 621.85,-136 621.85,-136 621.85,-130 627.85,-124 633.85,-124 633.85,-124 676.15,-124 676.15,-124 682.15,-124 688.15,-130 688.15,-136 688.15,-136 688.15,-148 688.15,-148 688.15,-154 682.15,-160 676.15,-160"/>
<text xml:space="preserve" text-anchor="middle" x="655" y="-136.95" font-family="Times,serif" font-size="14.00">neutral</text>
</g>
<!-- collaborate&#45;&gt;neutral -->
<g id="edge17" class="edge">
<title>collaborate&#45;&gt;neutral</title>
<path fill="none" stroke="black" d="M558.73,-231.73C578.36,-213.64 609.28,-185.14 630.76,-165.34"/>
<polygon fill="black" stroke="black" points="632.17,-166.9 635.16,-161.29 629.33,-163.81 632.17,-166.9"/>
</g>
<!-- multiplicity&#45;&gt;neutral -->
<g id="edge18" class="edge">
<title>multiplicity&#45;&gt;neutral</title>
<path fill="none" stroke="black" stroke-dasharray="5,2" d="M586.72,-128.97C595.84,-128.17 604.96,-128.39 614.08,-129.62"/>
<polygon fill="black" stroke="black" points="613.64,-131.68 619.9,-130.58 614.32,-127.53 613.64,-131.68"/>
</g>
<!-- structure -->
<g id="node15" class="node">
<title>structure</title>
<path fill="none" stroke="black" d="M623.02,-52C623.02,-52 570.98,-52 570.98,-52 564.98,-52 558.98,-46 558.98,-40 558.98,-40 558.98,-28 558.98,-28 558.98,-22 564.98,-16 570.98,-16 570.98,-16 623.02,-16 623.02,-16 629.02,-16 635.02,-22 635.02,-28 635.02,-28 635.02,-40 635.02,-40 635.02,-46 629.02,-52 623.02,-52"/>
<text xml:space="preserve" text-anchor="middle" x="597" y="-28.95" font-family="Times,serif" font-size="14.00">structure</text>
</g>
<!-- multiplicity&#45;&gt;structure -->
<g id="edge20" class="edge">
<title>multiplicity&#45;&gt;structure</title>
<path fill="none" stroke="black" d="M549.16,-123.97C558.66,-106.3 573.59,-78.54 584.24,-58.73"/>
<polygon fill="black" stroke="black" points="585.97,-59.95 586.96,-53.67 582.27,-57.96 585.97,-59.95"/>
</g>
<!-- neutral&#45;&gt;multiplicity -->
<g id="edge19" class="edge">
<title>neutral&#45;&gt;multiplicity</title>
<path fill="none" stroke="black" stroke-dasharray="5,2" d="M621.39,-153.17C612.27,-154.95 603.15,-155.71 594.03,-155.45"/>
<polygon fill="black" stroke="black" points="594.34,-153.37 588.23,-155.11 594.1,-157.56 594.34,-153.37"/>
</g>
<!-- neutral&#45;&gt;structure -->
<g id="edge21" class="edge">
<title>neutral&#45;&gt;structure</title>
<path fill="none" stroke="black" d="M645.68,-123.97C636.01,-106.3 620.82,-78.54 609.98,-58.73"/>
<polygon fill="black" stroke="black" points="611.94,-57.92 607.21,-53.67 608.25,-59.94 611.94,-57.92"/>
</g>
</g>
</svg>
