<?xml version="1.0" encoding="UTF-8" standalone="no"?>
<!DOCTYPE svg PUBLIC "-//W3C//DTD SVG 1.1//EN"
 "http://www.w3.org/Graphics/SVG/1.1/DTD/svg11.dtd">
<!-- Generated by graphviz version 14.1.1 (20251213.1925)
 -->
<!-- Title: mg Pages: 1 -->
<svg width="661pt" height="476pt"
 viewBox="0.00 0.00 661.00 476.00" xmlns="http://www.w3.org/2000/svg" xmlns:xlink="http://www.w3.org/1999/xlink">
<g id="graph0" class="graph" transform="scale(1 1) rotate(0) translate(4 472)">
<title>mg</title>
<polygon fill="white" stroke="none" points="-4,4 -4,-472 656.67,-472 656.67,4 -4,4"/>
<!-- design -->
<g id="node1" class="node">
<title>design</title>
<path fill="none" stroke="black" stroke-width="2" d="M345.42,-468C345.42,-468 305.38,-468 305.38,-468 299.38,-468 293.38,-462 293.38,-456 293.38,-456 293.38,-444 293.38,-444 293.38,-438 299.38,-432 305.38,-432 305.38,-432 345.42,-432 345.42,-432 351.42,-432 357.42,-438 357.42,-444 357.42,-444 357.42,-456 357.42,-456 357.42,-462 351.42,-468 345.42,-468"/>
<text xml:space="preserve" text-anchor="middle" x="325.4" y="-444.95" font-family="Times,serif" font-size="14.00">design</text>
</g>
<!-- elaborate -->
<g id="node2" class="node">
<title>elaborate</title>
<path fill="none" stroke="black" d="M177.55,-360C177.55,-360 123.25,-360 123.25,-360 117.25,-360 111.25,-354 111.25,-348 111.25,-348 111.25,-336 111.25,-336 111.25,-330 117.25,-324 123.25,-324 123.25,-324 177.55,-324 177.55,-324 183.55,-324 189.55,-330 189.55,-336 189.55,-336 189.55,-348 189.55,-348 189.55,-354 183.55,-360 177.55,-360"/>
<text xml:space="preserve" text-anchor="middle" x="150.4" y="-336.95" font-family="Times,serif" font-size="14.00">elaborate</text>
</g>
<!-- design&#45;&gt;elaborate -->
<g id="edge1" class="edge">
<title>design&#45;&gt;elaborate</title>
<path fill="none" stroke="black" d="M296.89,-431.73C266.48,-413.31 218.25,-384.1 185.52,-364.27"/>
<polygon fill="black" stroke="black" points="186.7,-362.53 180.48,-361.22 184.52,-366.12 186.7,-362.53"/>
</g>
<!-- compose -->
<g id="node3" class="node">
<title>compose</title>
<path fill="none" stroke="black" d="M352.17,-360C352.17,-360 298.62,-360 298.62,-360 292.62,-360 286.62,-354 286.62,-348 286.62,-348 286.62,-336 286.62,-336 286.62,-330 292.62,-324 298.62,-324 298.62,-324 352.17,-324 352.17,-324 358.17,-324 364.17,-330 364.17,-336 364.17,-336 364.17,-348 364.17,-348 364.17,-354 358.17,-360 352.17,-360"/>
<text xml:space="preserve" text-anchor="middle" x="325.4" y="-336.95" font-family="Times,serif" font-size="14.00">compose</text>
</g>
<!-- design&#45;&gt;compose -->
<g id="edge2" class="edge">
<title>design&#45;&gt;compose</title>
<path fill="none" stroke="black" d="M325.4,-431.97C325.4,-414.61 325.4,-387.5 325.4,-367.77"/>
<polygon fill="black" stroke="black" points="327.5,-367.85 325.4,-361.85 323.3,-367.85 327.5,-367.85"/>
</g>
<!-- collaborate -->
<g id="node4" class="node">
<title>collaborate</title>
<path fill="none" stroke="black" d="M539.8,-360C539.8,-360 475,-360 475,-360 469,-360 463,-354 463,-348 463,-348 463,-336 463,-336 463,-330 469,-324 475,-324 475,-324 539.8,-324 539.8,-324 545.8,-324 551.8,-330 551.8,-336 551.8,-336 551.8,-348 551.8,-348 551.8,-354 545.8,-360 539.8,-360"/>
<text xml:space="preserve" text-anchor="middle" x="507.4" y="-336.95" font-family="Times,serif" font-size="14.00">collaborate</text>
</g>
<!-- design&#45;&gt;collaborate -->
<g id="edge3" class="edge">
<title>design&#45;&gt;collaborate</title>
<path fill="none" stroke="black" d="M355.05,-431.73C386.81,-413.23 437.25,-383.86 471.3,-364.02"/>
<polygon fill="black" stroke="black" points="472.03,-366.03 476.16,-361.2 469.91,-362.4 472.03,-366.03"/>
</g>
<!-- card -->
<g id="node5" class="node">
<title>card</title>
<path fill="none" stroke="black" stroke-width="2" d="M73.4,-252C73.4,-252 43.4,-252 43.4,-252 37.4,-252 31.4,-246 31.4,-240 31.4,-240 31.4,-228 31.4,-228 31.4,-222 37.4,-216 43.4,-216 43.4,-216 73.4,-216 73.4,-216 79.4,-216 85.4,-222 85.4,-228 85.4,-228 85.4,-240 85.4,-240 85.4,-246 79.4,-252 73.4,-252"/>
<text xml:space="preserve" text-anchor="middle" x="58.4" y="-228.95" font-family="Times,serif" font-size="14.00">card</text>
</g>
<!-- elaborate&#45;&gt;card -->
<g id="edge4" class="edge">
<title>elaborate&#45;&gt;card</title>
<path fill="none" stroke="black" d="M135.62,-323.97C120.09,-306.07 95.56,-277.81 78.33,-257.96"/>
<polygon fill="black" stroke="black" points="79.96,-256.64 74.44,-253.48 76.79,-259.39 79.96,-256.64"/>
</g>
<!-- agent -->
<g id="node6" class="node">
<title>agent</title>
<path fill="none" stroke="black" d="M167.42,-252C167.42,-252 133.37,-252 133.37,-252 127.37,-252 121.37,-246 121.37,-240 121.37,-240 121.37,-228 121.37,-228 121.37,-222 127.37,-216 133.37,-216 133.37,-216 167.42,-216 167.42,-216 173.42,-216 179.42,-222 179.42,-228 179.42,-228 179.42,-240 179.42,-240 179.42,-246 173.42,-252 167.42,-252"/>
<text xml:space="preserve" text-anchor="middle" x="150.4" y="-228.95" font-family="Times,serif" font-size="14.00">agent</text>
</g>
<!-- elaborate&#45;&gt;agent -->
<g id="edge5" class="edge">
<title>elaborate&#45;&gt;agent</title>
<path fill="none" stroke="black" d="M150.4,-323.97C150.4,-306.61 150.4,-279.5 150.4,-259.77"/>
<polygon fill="black" stroke="black" points="152.5,-259.85 150.4,-253.85 148.3,-259.85 152.5,-259.85"/>
</g>
<!-- intent -->
<g id="node10" class="node">
<title>intent</title>
<path fill="none" stroke="black" d="M291.17,-252C291.17,-252 255.62,-252 255.62,-252 249.62,-252 243.62,-246 243.62,-240 243.62,-240 243.62,-228 243.62,-228 243.62,-222 249.62,-216 255.62,-216 255.62,-216 291.17,-216 291.17,-216 297.17,-216 303.17,-222 303.17,-228 303.17,-228 303.17,-240 303.17,-240 303.17,-246 297.17,-252 291.17,-252"/>
<text xml:space="preserve" text-anchor="middle" x="273.4" y="-228.95" font-family="Times,serif" font-size="14.00">intent</text>
</g>
<!-- compose&#45;&gt;intent -->
<g id="edge14" class="edge">
<title>compose&#45;&gt;intent</title>
<path fill="none" stroke="black" d="M317.05,-323.97C308.42,-306.38 294.88,-278.78 285.17,-258.99"/>
<polygon fill="black" stroke="black" points="287.1,-258.16 282.57,-253.7 283.33,-260.01 287.1,-258.16"/>
</g>
<!-- encoding -->
<g id="node11" class="node">
<title>encoding</title>
<path fill="none" stroke="black" d="M405.55,-252C405.55,-252 351.25,-252 351.25,-252 345.25,-252 339.25,-246 339.25,-240 339.25,-240 339.25,-228 339.25,-228 339.25,-222 345.25,-216 351.25,-216 351.25,-216 405.55,-216 405.55,-216 411.55,-216 417.55,-222 417.55,-228 417.55,-228 417.55,-240 417.55,-240 417.55,-246 411.55,-252 405.55,-252"/>
<text xml:space="preserve" text-anchor="middle" x="378.4" y="-228.95" font-family="Times,serif" font-size="14.00">encoding</text>
</g>
<!-- compose&#45;&gt;encoding -->
<g id="edge15" class="edge">
<title>compose&#45;&gt;encoding</title>
<path fill="none" stroke="black" d="M333.92,-323.97C342.71,-306.38 356.51,-278.78 366.41,-258.99"/>
<polygon fill="black" stroke="black" points="368.25,-260 369.05,-253.69 364.49,-258.12 368.25,-260"/>
</g>
<!-- multiplicity -->
<g id="node15" class="node">
<title>multiplicity</title>
<path fill="none" stroke="black" d="M541.67,-252C541.67,-252 473.12,-252 473.12,-252 467.12,-252 461.12,-246 461.12,-240 461.12,-240 461.12,-228 461.12,-228 461.12,-222 467.12,-216 473.12,-216 473.12,-216 541.67,-216 541.67,-216 547.67,-216 553.67,-222 553.67,-228 553.67,-228 553.67,-240 553.67,-240 553.67,-246 547.67,-252 541.67,-252"/>
<text xml:space="preserve" text-anchor="middle" x="507.4" y="-228.95" font-family="Times,serif" font-size="14.00">multiplicity</text>
</g>
<!-- collaborate&#45;&gt;multiplicity -->
<g id="edge24" class="edge">
<title>collaborate&#45;&gt;multiplicity</title>
<path fill="none" stroke="black" d="M507.4,-323.97C507.4,-306.61 507.4,-279.5 507.4,-259.77"/>
<polygon fill="black" stroke="black" points="509.5,-259.85 507.4,-253.85 505.3,-259.85 509.5,-259.85"/>
</g>
<!-- kernel -->
<g id="node16" class="node">
<title>kernel</title>
<path fill="none" stroke="black" d="M640.67,-252C640.67,-252 602.12,-252 602.12,-252 596.12,-252 590.12,-246 590.12,-240 590.12,-240 590.12,-228 590.12,-228 590.12,-222 596.12,-216 602.12,-216 602.12,-216 640.67,-216 640.67,-216 646.67,-216 652.67,-222 652.67,-228 652.67,-228 652.67,-240 652.67,-240 652.67,-246 646.67,-252 640.67,-252"/>
<text xml:space="preserve" text-anchor="middle" x="621.4" y="-228.95" font-family="Times,serif" font-size="14.00">kernel</text>
</g>
<!-- collaborate&#45;&gt;kernel -->
<g id="edge25" class="edge">
<title>collaborate&#45;&gt;kernel</title>
<path fill="none" stroke="black" d="M525.97,-323.73C545.43,-305.64 576.08,-277.14 597.37,-257.34"/>
<polygon fill="black" stroke="black" points="598.77,-258.91 601.73,-253.29 595.91,-255.84 598.77,-258.91"/>
</g>
<!-- card&#45;&gt;agent -->
<g id="edge6" class="edge">
<title>card&#45;&gt;agent</title>
<path fill="none" stroke="black" stroke-dasharray="5,2" d="M85.71,-222.73C95.11,-220.49 104.51,-219.94 113.9,-221.08"/>
<polygon fill="black" stroke="black" points="113.33,-223.11 119.6,-222.03 114.02,-218.97 113.33,-223.11"/>
</g>
<!-- semantics -->
<g id="node7" class="node">
<title>semantics</title>
<path fill="none" stroke="black" d="M70.8,-144C70.8,-144 12,-144 12,-144 6,-144 0,-138 0,-132 0,-132 0,-120 0,-120 0,-114 6,-108 12,-108 12,-108 70.8,-108 70.8,-108 76.8,-108 82.8,-114 82.8,-120 82.8,-120 82.8,-132 82.8,-132 82.8,-138 76.8,-144 70.8,-144"/>
<text xml:space="preserve" text-anchor="middle" x="41.4" y="-120.95" font-family="Times,serif" font-size="14.00">semantics</text>
</g>
<!-- card&#45;&gt;semantics -->
<g id="edge8" class="edge">
<title>card&#45;&gt;semantics</title>
<path fill="none" stroke="black" d="M55.67,-215.97C52.87,-198.53 48.5,-171.26 45.33,-151.51"/>
<polygon fill="black" stroke="black" points="47.44,-151.43 44.42,-145.84 43.3,-152.09 47.44,-151.43"/>
</g>
<!-- syntax -->
<g id="node8" class="node">
<title>syntax</title>
<path fill="none" stroke="black" d="M170.42,-144C170.42,-144 130.37,-144 130.37,-144 124.37,-144 118.37,-138 118.37,-132 118.37,-132 118.37,-120 118.37,-120 118.37,-114 124.37,-108 130.37,-108 130.37,-108 170.42,-108 170.42,-108 176.42,-108 182.42,-114 182.42,-120 182.42,-120 182.42,-132 182.42,-132 182.42,-138 176.42,-144 170.42,-144"/>
<text xml:space="preserve" text-anchor="middle" x="150.4" y="-120.95" font-family="Times,serif" font-size="14.00">syntax</text>
</g>
<!-- card&#45;&gt;syntax -->
<g id="edge9" class="edge">
<title>card&#45;&gt;syntax</title>
<path fill="none" stroke="black" d="M73.18,-215.97C88.71,-198.07 113.24,-169.81 130.47,-149.96"/>
<polygon fill="black" stroke="black" points="132.01,-151.39 134.36,-145.48 128.84,-148.64 132.01,-151.39"/>
</g>
<!-- agent&#45;&gt;card -->
<g id="edge7" class="edge">
<title>agent&#45;&gt;card</title>
<path fill="none" stroke="black" stroke-dasharray="5,2" d="M121.09,-245.72C111.69,-247.72 102.29,-248.04 92.9,-246.66"/>
<polygon fill="black" stroke="black" points="93.49,-244.63 87.2,-245.56 92.69,-248.76 93.49,-244.63"/>
</g>
<!-- agent&#45;&gt;semantics -->
<g id="edge10" class="edge">
<title>agent&#45;&gt;semantics</title>
<path fill="none" stroke="black" d="M132.89,-215.97C114.33,-197.92 84.93,-169.33 64.48,-149.45"/>
<polygon fill="black" stroke="black" points="66.08,-148.07 60.32,-145.4 63.15,-151.08 66.08,-148.07"/>
</g>
<!-- agent&#45;&gt;syntax -->
<g id="edge11" class="edge">
<title>agent&#45;&gt;syntax</title>
<path fill="none" stroke="black" d="M150.4,-215.97C150.4,-198.61 150.4,-171.5 150.4,-151.77"/>
<polygon fill="black" stroke="black" points="152.5,-151.85 150.4,-145.85 148.3,-151.85 152.5,-151.85"/>
</g>
<!-- meaning -->
<g id="node9" class="node">
<title>meaning</title>
<path fill="none" stroke="black" d="M122.42,-36C122.42,-36 70.37,-36 70.37,-36 64.37,-36 58.37,-30 58.37,-24 58.37,-24 58.37,-12 58.37,-12 58.37,-6 64.37,0 70.37,0 70.37,0 122.42,0 122.42,0 128.42,0 134.42,-6 134.42,-12 134.42,-12 134.42,-24 134.42,-24 134.42,-30 128.42,-36 122.42,-36"/>
<text xml:space="preserve" text-anchor="middle" x="96.4" y="-12.95" font-family="Times,serif" font-size="14.00">meaning</text>
</g>
<!-- semantics&#45;&gt;meaning -->
<g id="edge12" class="edge">
<title>semantics&#45;&gt;meaning</title>
<path fill="none" stroke="black" d="M50.24,-107.97C59.36,-90.38 73.68,-62.78 83.95,-42.99"/>
<polygon fill="black" stroke="black" points="85.81,-43.98 86.71,-37.68 82.08,-42.04 85.81,-43.98"/>
</g>
<!-- syntax&#45;&gt;meaning -->
<g id="edge13" class="edge">
<title>syntax&#45;&gt;meaning</title>
<path fill="none" stroke="black" d="M141.72,-107.97C132.76,-90.38 118.7,-62.78 108.62,-42.99"/>
<polygon fill="black" stroke="black" points="110.52,-42.08 105.92,-37.69 106.77,-43.99 110.52,-42.08"/>
</g>
<!-- intent&#45;&gt;encoding -->
<g id="edge16" class="edge">
<title>intent&#45;&gt;encoding</title>
<path fill="none" stroke="black" stroke-dasharray="5,2" d="M303.34,-222.99C312.76,-220.91 322.19,-220.13 331.61,-220.66"/>
<polygon fill="black" stroke="black" points="331.15,-222.73 337.31,-221.18 331.53,-218.54 331.15,-222.73"/>
</g>
<!-- elab -->
<g id="node12" class="node">
<title>elab</title>
<path fill="none" stroke="black" d="M260.4,-144C260.4,-144 230.4,-144 230.4,-144 224.4,-144 218.4,-138 218.4,-132 218.4,-132 218.4,-120 218.4,-120 218.4,-114 224.4,-108 230.4,-108 230.4,-108 260.4,-108 260.4,-108 266.4,-108 272.4,-114 272.4,-120 272.4,-120 272.4,-132 272.4,-132 272.4,-138 266.4,-144 260.4,-144"/>
<text xml:space="preserve" text-anchor="middle" x="245.4" y="-120.95" font-family="Times,serif" font-size="14.00">elab</text>
</g>
<!-- intent&#45;&gt;elab -->
<g id="edge18" class="edge">
<title>intent&#45;&gt;elab</title>
<path fill="none" stroke="black" d="M268.9,-215.97C264.3,-198.53 257.09,-171.26 251.87,-151.51"/>
<polygon fill="black" stroke="black" points="253.93,-151.07 250.37,-145.8 249.87,-152.14 253.93,-151.07"/>
</g>
<!-- flow -->
<g id="node13" class="node">
<title>flow</title>
<path fill="none" stroke="black" d="M350.4,-144C350.4,-144 320.4,-144 320.4,-144 314.4,-144 308.4,-138 308.4,-132 308.4,-132 308.4,-120 308.4,-120 308.4,-114 314.4,-108 320.4,-108 320.4,-108 350.4,-108 350.4,-108 356.4,-108 362.4,-114 362.4,-120 362.4,-120 362.4,-132 362.4,-132 362.4,-138 356.4,-144 350.4,-144"/>
<text xml:space="preserve" text-anchor="middle" x="335.4" y="-120.95" font-family="Times,serif" font-size="14.00">flow</text>
</g>
<!-- intent&#45;&gt;flow -->
<g id="edge19" class="edge">
<title>intent&#45;&gt;flow</title>
<path fill="none" stroke="black" d="M283.36,-215.97C293.69,-198.3 309.93,-170.54 321.52,-150.73"/>
<polygon fill="black" stroke="black" points="323.28,-151.89 324.49,-145.65 319.65,-149.77 323.28,-151.89"/>
</g>
<!-- path -->
<g id="node14" class="node">
<title>path</title>
<path fill="none" stroke="black" d="M440.4,-144C440.4,-144 410.4,-144 410.4,-144 404.4,-144 398.4,-138 398.4,-132 398.4,-132 398.4,-120 398.4,-120 398.4,-114 404.4,-108 410.4,-108 410.4,-108 440.4,-108 440.4,-108 446.4,-108 452.4,-114 452.4,-120 452.4,-120 452.4,-132 452.4,-132 452.4,-138 446.4,-144 440.4,-144"/>
<text xml:space="preserve" text-anchor="middle" x="425.4" y="-120.95" font-family="Times,serif" font-size="14.00">path</text>
</g>
<!-- intent&#45;&gt;path -->
<g id="edge20" class="edge">
<title>intent&#45;&gt;path</title>
<path fill="none" stroke="black" d="M298.16,-215.73C324.47,-197.39 366.11,-168.34 394.54,-148.52"/>
<polygon fill="black" stroke="black" points="395.44,-150.46 399.16,-145.3 393.03,-147.01 395.44,-150.46"/>
</g>
<!-- encoding&#45;&gt;intent -->
<g id="edge17" class="edge">
<title>encoding&#45;&gt;intent</title>
<path fill="none" stroke="black" stroke-dasharray="5,2" d="M338.82,-246.68C329.39,-247.88 319.97,-247.76 310.55,-246.35"/>
<polygon fill="black" stroke="black" points="311.11,-244.31 304.83,-245.28 310.35,-248.44 311.11,-244.31"/>
</g>
<!-- encoding&#45;&gt;elab -->
<g id="edge21" class="edge">
<title>encoding&#45;&gt;elab</title>
<path fill="none" stroke="black" d="M356.74,-215.73C333.84,-197.48 297.67,-168.66 272.8,-148.84"/>
<polygon fill="black" stroke="black" points="274.24,-147.3 268.24,-145.2 271.62,-150.58 274.24,-147.3"/>
</g>
<!-- encoding&#45;&gt;flow -->
<g id="edge22" class="edge">
<title>encoding&#45;&gt;flow</title>
<path fill="none" stroke="black" d="M371.49,-215.97C364.39,-198.46 353.26,-171.02 345.24,-151.25"/>
<polygon fill="black" stroke="black" points="347.2,-150.51 343,-145.74 343.31,-152.09 347.2,-150.51"/>
</g>
<!-- encoding&#45;&gt;path -->
<g id="edge23" class="edge">
<title>encoding&#45;&gt;path</title>
<path fill="none" stroke="black" d="M385.95,-215.97C393.75,-198.38 405.99,-170.78 414.76,-150.99"/>
<polygon fill="black" stroke="black" points="416.59,-152.06 417.1,-145.72 412.75,-150.36 416.59,-152.06"/>
</g>
<!-- context -->
<g id="node19" class="node">
<title>context</title>
<path fill="none" stroke="black" d="M357.67,-36C357.67,-36 313.12,-36 313.12,-36 307.12,-36 301.12,-30 301.12,-24 301.12,-24 301.12,-12 301.12,-12 301.12,-6 307.12,0 313.12,0 313.12,0 357.67,0 357.67,0 363.67,0 369.67,-6 369.67,-12 369.67,-12 369.67,-24 369.67,-24 369.67,-30 363.67,-36 357.67,-36"/>
<text xml:space="preserve" text-anchor="middle" x="335.4" y="-12.95" font-family="Times,serif" font-size="14.00">context</text>
</g>
<!-- elab&#45;&gt;context -->
<g id="edge34" class="edge">
<title>elab&#45;&gt;context</title>
<path fill="none" stroke="black" d="M259.86,-107.97C275.06,-90.07 299.05,-61.81 315.91,-41.96"/>
<polygon fill="black" stroke="black" points="317.41,-43.43 319.7,-37.49 314.21,-40.71 317.41,-43.43"/>
</g>
<!-- flow&#45;&gt;context -->
<g id="edge35" class="edge">
<title>flow&#45;&gt;context</title>
<path fill="none" stroke="black" d="M335.4,-107.97C335.4,-90.61 335.4,-63.5 335.4,-43.77"/>
<polygon fill="black" stroke="black" points="337.5,-43.85 335.4,-37.85 333.3,-43.85 337.5,-43.85"/>
</g>
<!-- path&#45;&gt;context -->
<g id="edge36" class="edge">
<title>path&#45;&gt;context</title>
<path fill="none" stroke="black" d="M410.94,-107.97C395.74,-90.07 371.75,-61.81 354.89,-41.96"/>
<polygon fill="black" stroke="black" points="356.59,-40.71 351.1,-37.49 353.39,-43.43 356.59,-40.71"/>
</g>
<!-- multiplicity&#45;&gt;kernel -->
<g id="edge26" class="edge">
<title>multiplicity&#45;&gt;kernel</title>
<path fill="none" stroke="black" stroke-dasharray="5,2" d="M554.16,-220.94C563.65,-220.13 573.14,-220.44 582.62,-221.88"/>
<polygon fill="black" stroke="black" points="582.11,-223.92 588.39,-222.93 582.86,-219.79 582.11,-223.92"/>
</g>
<!-- sharing -->
<g id="node17" class="node">
<title>sharing</title>
<path fill="none" stroke="black" d="M613.67,-36C613.67,-36 569.12,-36 569.12,-36 563.12,-36 557.12,-30 557.12,-24 557.12,-24 557.12,-12 557.12,-12 557.12,-6 563.12,0 569.12,0 569.12,0 613.67,0 613.67,0 619.67,0 625.67,-6 625.67,-12 625.67,-12 625.67,-24 625.67,-24 625.67,-30 619.67,-36 613.67,-36"/>
<text xml:space="preserve" text-anchor="middle" x="591.4" y="-12.95" font-family="Times,serif" font-size="14.00">sharing</text>
</g>
<!-- multiplicity&#45;&gt;sharing -->
<g id="edge28" class="edge">
<title>multiplicity&#45;&gt;sharing</title>
<path fill="none" stroke="black" d="M511.38,-215.65C517.25,-191.17 529.2,-145.31 544.4,-108 553.79,-84.94 567.29,-59.98 577.42,-42.37"/>
<polygon fill="black" stroke="black" points="579.02,-43.79 580.22,-37.55 575.39,-41.68 579.02,-43.79"/>
</g>
<!-- space -->
<g id="node18" class="node">
<title>space</title>
<path fill="none" stroke="black" d="M608.8,-144C608.8,-144 574,-144 574,-144 568,-144 562,-138 562,-132 562,-132 562,-120 562,-120 562,-114 568,-108 574,-108 574,-108 608.8,-108 608.8,-108 614.8,-108 620.8,-114 620.8,-120 620.8,-120 620.8,-132 620.8,-132 620.8,-138 614.8,-144 608.8,-144"/>
<text xml:space="preserve" text-anchor="middle" x="591.4" y="-120.95" font-family="Times,serif" font-size="14.00">space</text>
</g>
<!-- multiplicity&#45;&gt;space -->
<g id="edge29" class="edge">
<title>multiplicity&#45;&gt;space</title>
<path fill="none" stroke="black" d="M520.9,-215.97C535.02,-198.15 557.28,-170.06 573,-150.21"/>
<polygon fill="black" stroke="black" points="574.64,-151.53 576.72,-145.53 571.35,-148.93 574.64,-151.53"/>
</g>
<!-- kernel&#45;&gt;multiplicity -->
<g id="edge27" class="edge">
<title>kernel&#45;&gt;multiplicity</title>
<path fill="none" stroke="black" stroke-dasharray="5,2" d="M589.88,-244.8C580.39,-246.81 570.9,-247.7 561.41,-247.46"/>
<polygon fill="black" stroke="black" points="561.78,-245.38 555.67,-247.15 561.54,-249.57 561.78,-245.38"/>
</g>
<!-- kernel&#45;&gt;sharing -->
<g id="edge30" class="edge">
<title>kernel&#45;&gt;sharing</title>
<path fill="none" stroke="black" d="M627.78,-215.8C635.9,-191.49 647.78,-145.84 638.4,-108 632.49,-84.13 618.87,-59.61 607.81,-42.37"/>
<polygon fill="black" stroke="black" points="609.75,-41.49 604.7,-37.63 606.23,-43.8 609.75,-41.49"/>
</g>
<!-- kernel&#45;&gt;space -->
<g id="edge31" class="edge">
<title>kernel&#45;&gt;space</title>
<path fill="none" stroke="black" d="M616.58,-215.97C611.65,-198.53 603.93,-171.26 598.34,-151.51"/>
<polygon fill="black" stroke="black" points="600.37,-151 596.72,-145.8 596.33,-152.14 600.37,-151"/>
</g>
<!-- sharing&#45;&gt;space -->
<g id="edge32" class="edge">
<title>sharing&#45;&gt;space</title>
<path fill="none" stroke="black" stroke-dasharray="5,2" d="M601.7,-36.34C605.49,-53.81 605.91,-80.94 602.98,-100.58"/>
<polygon fill="black" stroke="black" points="600.91,-100.2 601.9,-106.48 605.04,-100.95 600.91,-100.2"/>
</g>
<!-- space&#45;&gt;sharing -->
<g id="edge33" class="edge">
<title>space&#45;&gt;sharing</title>
<path fill="none" stroke="black" stroke-dasharray="5,2" d="M581.17,-107.97C577.32,-90.53 576.87,-63.26 579.81,-43.51"/>
<polygon fill="black" stroke="black" points="581.84,-44.11 580.83,-37.83 577.7,-43.36 581.84,-44.11"/>
</g>
</g>
</svg>
